# xmcd CD database file
#
# Track frame offsets:
#	150
#	10695
#	25185
#	38775
#	55067
#	68367
#	87070
#	100295
#	116157
#	132497
#
# Disc length: 1988 seconds
#
# Revision: 3
# Processed by: cddbd v1.5.2PL0 Copyright (c) Steve Scherf et al.
# Submitted via: CDex 1.51
#
DISCID=7607c20a
DTITLE=Ricky Skaggs - Comin' Home To Stay
DYEAR=1988
DGENRE=Country
TTITLE0=I'm Tired
TTITLE1=Hold Whatcha Got
TTITLE2=(Angel on My Mind) That's Why I'm Walkin'
TTITLE3=Home is Whereever You Are(Duet With Sharon White)
TTITLE4=If You Don't Believe the Bible
TTITLE5=San Antonio Rose
TTITLE6=Lord, She Sure is Good at Lovin' Me
TTITLE7=Old Kind Of Love
TTITLE8=Thanks Again
TTITLE9=Woman You Won't Break Mine
EXTD=YEAR: 1988
EXTT0=
EXTT1=
EXTT2=
EXTT3=
EXTT4=
EXTT5=
EXTT6=
EXTT7=
EXTT8=
EXTT9=
PLAYORDER=
